<?xml version="1.0" encoding="UTF-8"?>
<svg version="1.1" xmlns="http://www.w3.org/2000/svg" width="837" height="837">
<path d="M0 0 C1.88628113 0.00273422 1.88628113 0.00273422 3.81066895 0.00552368 C22.05260218 0.05004521 39.88952613 0.47969582 57.9375 3.3125 C59.07719238 3.47878906 60.21688477 3.64507812 61.39111328 3.81640625 C102.10562323 9.81118072 141.78812055 21.55823081 178.9375 39.3125 C179.96439941 39.80250488 180.99129883 40.29250977 182.04931641 40.79736328 C210.22199275 54.35004553 236.48612518 70.79495394 260.9375 90.3125 C262.47083984 91.52679688 262.47083984 91.52679688 264.03515625 92.765625 C269.5882761 97.23311382 274.90199683 101.92200407 280.13671875 106.7578125 C282.29924431 108.73032535 284.48567124 110.64964575 286.703125 112.55859375 C291.33126789 116.59643176 295.6694472 120.89740876 300 125.25 C301.1456543 126.38985352 301.1456543 126.38985352 302.31445312 127.55273438 C307.06292941 132.30933466 311.5703513 137.2052497 315.9375 142.3125 C316.783125 143.27671875 317.62875 144.2409375 318.5 145.234375 C342.38495488 172.94704701 361.47719973 203.74275124 377.9375 236.3125 C378.31648437 237.05967285 378.69546875 237.8068457 379.0859375 238.57666016 C397.10402313 274.43502137 408.24217053 313.84226963 414.75 353.3125 C414.9449707 354.49046143 415.13994141 355.66842285 415.34082031 356.88208008 C418.52769175 377.34522326 419.31230207 397.68661639 419.25 418.375 C419.24726578 420.26128113 419.24726578 420.26128113 419.24447632 422.18566895 C419.19995479 440.42760218 418.77030418 458.26452613 415.9375 476.3125 C415.77121094 477.45219238 415.60492187 478.59188477 415.43359375 479.76611328 C409.43881928 520.48062323 397.69176919 560.16312055 379.9375 597.3125 C379.44749512 598.33939941 378.95749023 599.36629883 378.45263672 600.42431641 C364.89995447 628.59699275 348.45504606 654.86112518 328.9375 679.3125 C328.12796875 680.33472656 327.3184375 681.35695313 326.484375 682.41015625 C322.01688618 687.9632761 317.32799593 693.27699683 312.4921875 698.51171875 C310.51967465 700.67424431 308.60035425 702.86067124 306.69140625 705.078125 C302.65356824 709.70626789 298.35259124 714.0444472 294 718.375 C292.86014648 719.5206543 292.86014648 719.5206543 291.69726562 720.68945312 C286.94066534 725.43792941 282.0447503 729.9453513 276.9375 734.3125 C275.97328125 735.158125 275.0090625 736.00375 274.015625 736.875 C246.30295299 760.75995488 215.50724876 779.85219973 182.9375 796.3125 C182.19032715 796.69148437 181.4431543 797.07046875 180.67333984 797.4609375 C144.81497863 815.47902313 105.40773037 826.61717053 65.9375 833.125 C64.75953857 833.3199707 63.58157715 833.51494141 62.36791992 833.71582031 C41.90477674 836.90269175 21.56338361 837.68730207 0.875 837.625 C-0.38252075 837.62317719 -1.6400415 837.62135437 -2.93566895 837.61947632 C-21.17760218 837.57495479 -39.01452613 837.14530418 -57.0625 834.3125 C-58.20219238 834.14621094 -59.34188477 833.97992187 -60.51611328 833.80859375 C-101.23062323 827.81381928 -140.91312055 816.06676919 -178.0625 798.3125 C-179.60284912 797.57749268 -179.60284912 797.57749268 -181.17431641 796.82763672 C-209.34699275 783.27495447 -235.61112518 766.83004606 -260.0625 747.3125 C-261.08472656 746.50296875 -262.10695313 745.6934375 -263.16015625 744.859375 C-268.7132761 740.39188618 -274.02699683 735.70299593 -279.26171875 730.8671875 C-281.42424431 728.89467465 -283.61067124 726.97535425 -285.828125 725.06640625 C-290.45626789 721.02856824 -294.7944472 716.72759124 -299.125 712.375 C-300.2706543 711.23514648 -300.2706543 711.23514648 -301.43945312 710.07226562 C-306.18792941 705.31566534 -310.6953513 700.4197503 -315.0625 695.3125 C-315.908125 694.34828125 -316.75375 693.3840625 -317.625 692.390625 C-341.50995488 664.67795299 -360.60219973 633.88224876 -377.0625 601.3125 C-377.44148438 600.56532715 -377.82046875 599.8181543 -378.2109375 599.04833984 C-396.22902313 563.18997863 -407.36717053 523.78273037 -413.875 484.3125 C-414.0699707 483.13453857 -414.26494141 481.95657715 -414.46582031 480.74291992 C-417.65269175 460.27977674 -418.43730207 439.93838361 -418.375 419.25 C-418.37226578 417.36371887 -418.37226578 417.36371887 -418.36947632 415.43933105 C-418.32495479 397.19739782 -417.89530418 379.36047387 -415.0625 361.3125 C-414.89621094 360.17280762 -414.72992188 359.03311523 -414.55859375 357.85888672 C-408.56381928 317.14437677 -396.81676919 277.46187945 -379.0625 240.3125 C-378.57249512 239.28560059 -378.08249023 238.25870117 -377.57763672 237.20068359 C-364.02495447 209.02800725 -347.58004606 182.76387482 -328.0625 158.3125 C-327.25296875 157.29027344 -326.4434375 156.26804688 -325.609375 155.21484375 C-321.14188618 149.6617239 -316.45299593 144.34800317 -311.6171875 139.11328125 C-309.64467465 136.95075569 -307.72535425 134.76432876 -305.81640625 132.546875 C-301.77856824 127.91873211 -297.47759124 123.5805528 -293.125 119.25 C-292.36509766 118.48623047 -291.60519531 117.72246094 -290.82226562 116.93554688 C-286.06566534 112.18707059 -281.1697503 107.6796487 -276.0625 103.3125 C-275.09828125 102.466875 -274.1340625 101.62125 -273.140625 100.75 C-245.42795299 76.86504512 -214.63224876 57.77280027 -182.0625 41.3125 C-181.31532715 40.93351562 -180.5681543 40.55453125 -179.79833984 40.1640625 C-143.93997863 22.14597687 -104.53273037 11.00782947 -65.0625 4.5 C-63.88453857 4.3050293 -62.70657715 4.11005859 -61.49291992 3.90917969 C-41.02977674 0.72230825 -20.68838361 -0.06230207 0 0 Z " fill="#F3F4F5" transform="translate(418.0625,-0.31250000000000006)"/>
<path d="M0 0 C2.74482916 2.74482916 3.26516115 5.87107278 4.2578125 9.51953125 C4.47808609 10.30574356 4.69835968 11.09195587 4.92530823 11.9019928 C5.40839243 13.62654505 5.88875972 15.35186005 6.36679077 17.07781982 C7.67461515 21.79483101 9.0057164 26.50521377 10.33984375 31.21484375 C10.6254567 32.2233136 10.91106964 33.23178345 11.20533752 34.27081299 C15.55395706 49.54724384 20.21302219 64.73220797 24.83056641 79.92895508 C25.33510597 81.59044838 25.33510597 81.59044838 25.84983826 83.2855072 C26.48334654 85.37037912 27.11794082 87.45492146 27.75379944 89.53907776 C28.03573654 90.46574753 28.31767365 91.3924173 28.6081543 92.34716797 C28.85397751 93.15314423 29.09980072 93.95912048 29.35307312 94.78952026 C30.40042304 98.36820258 31.12508349 101.47294902 31.11352539 105.21777344 C31.11341209 106.4485965 31.11341209 106.4485965 31.11329651 107.70428467 C31.10813522 108.58046448 31.10297394 109.45664429 31.09765625 110.359375 C31.0962413 111.26375305 31.09482635 112.1681311 31.09336853 113.09991455 C31.08777911 115.98331027 31.07522853 118.86662782 31.0625 121.75 C31.05748363 123.70703013 31.05292096 125.66406147 31.04882812 127.62109375 C31.03781313 132.41409253 31.02055574 137.20703302 31 142 C31.78930908 142.29801514 32.57861816 142.59603027 33.3918457 142.90307617 C36.13648828 144.05740352 37.3134884 145.04660394 39.1875 147.3125 C39.67605469 147.88613281 40.16460937 148.45976562 40.66796875 149.05078125 C44.97478782 155.35313525 44.37224562 162.23303433 44.37060547 169.5546875 C44.37495991 171.72997467 44.41126106 173.9031987 44.44921875 176.078125 C44.52595456 185.19999679 44.08524685 192.78407911 37.45407104 199.62736511 C34.51647147 203.15452983 34.30228316 206.47647281 34.38476562 210.94555664 C34.37644211 212.10525215 34.37644211 212.10525215 34.36795044 213.28837585 C34.35619349 215.82961104 34.38038496 218.36904734 34.40625 220.91015625 C34.40796209 222.68322163 34.40789442 224.45628954 34.40612793 226.22935486 C34.40777886 229.93903941 34.42643637 233.64811796 34.45800781 237.35766602 C34.49771381 242.10803048 34.5020483 246.85760289 34.49454498 251.60810184 C34.491473 255.26703625 34.50360345 258.92579322 34.52067566 262.58468437 C34.52769637 264.33613408 34.53083132 266.08760389 34.52998352 267.83906746 C34.53178497 270.28769291 34.55319461 272.73537584 34.58007812 275.18383789 C34.57714752 275.90449432 34.57421692 276.62515076 34.57119751 277.36764526 C34.64584286 281.78288102 35.48577378 284.39490133 38 288 C38.51117927 291.26789607 38.38150946 294.60620374 37.50415039 297.81152344 C36.80121115 300.86292651 36.77638557 303.82471498 36.68359375 306.953125 C36.6524221 307.94345734 36.6524221 307.94345734 36.62062073 308.95379639 C36.55549853 311.05243015 36.49641498 313.15118372 36.4375 315.25 C36.39427921 316.67709547 36.3506638 318.10417905 36.30664062 319.53125 C36.19985589 323.02070722 36.09848434 326.51029753 36 330 C37.25554687 330.14179688 38.51109375 330.28359375 39.8046875 330.4296875 C46.60377313 331.19755138 50.42460556 334.04246958 54.703125 339.18359375 C57.89477372 343.65382464 58.30765866 347.33375907 58.30078125 352.765625 C58.30506638 353.51785339 58.3093515 354.27008179 58.31376648 355.04510498 C58.31950025 356.63536577 58.32001706 358.22565278 58.31567383 359.81591797 C58.31252868 362.22800508 58.33593156 364.63884697 58.36132812 367.05078125 C58.36360297 368.60156097 58.36430376 370.15234395 58.36328125 371.703125 C58.372491 372.41486877 58.38170074 373.12661255 58.39118958 373.85992432 C58.33790938 379.73823265 57.50193989 385.41858094 53.26887512 389.78611755 C52.63809555 390.3919014 52.00731598 390.99768524 51.35742188 391.62182617 C46.3614451 397.04002247 47.10249508 403.02993071 47.28125 410.05078125 C47.29181469 411.43196196 47.29935874 412.81316866 47.30407715 414.19438171 C47.32505439 417.83282464 47.38870973 421.46932156 47.46105957 425.10705566 C47.52464898 428.7085287 47.54500797 432.31020273 47.5703125 435.91210938 C47.71616376 453.28625289 48.2511437 470.64154917 49 488 C49.59828613 487.25830566 50.19657227 486.51661133 50.81298828 485.75244141 C57.64714335 477.30045602 64.46783359 468.89300921 72.81640625 461.87890625 C74.40384748 460.51296845 75.94839705 459.09669314 77.46484375 457.65234375 C97.18427541 438.87324964 120.75167609 424.50001174 143.625 409.9375 C182.00903174 387.57877554 182.00903174 387.57877554 210.625 354.8125 C210.74875 353.884375 210.8725 352.95625 211 352 C210.38125 351.236875 209.7625 350.47375 209.125 349.6875 C206.47371278 346.33440146 206.36481304 344.32323121 206.53125 340.1484375 C207.27267417 336.75024337 209.39701324 335.15857439 212 333 C212.33 332.01 212.66 331.02 213 330 C212.443125 329.938125 211.88625 329.87625 211.3125 329.8125 C207.51666774 328.47882921 204.78829587 325.57659173 203 322 C202.50106599 317.63789121 201.99854069 313.03897116 203.9765625 309.01171875 C206.21647044 306.2427528 208.65738342 304.23800614 212 303 C212.41890218 300.21061788 212.41890218 300.21061788 212 297 C210.7625 295.824375 210.7625 295.824375 209.5 294.625 C206.77779107 291.76668063 206.65501697 291.3840692 206.6875 287.6875 C206.790625 286.470625 206.89375 285.25375 207 284 C206.11828125 283.8865625 205.2365625 283.773125 204.328125 283.65625 C194.50992127 281.72026617 186.88937868 274.87722811 180 268 C179.42378906 267.43539063 178.84757813 266.87078125 178.25390625 266.2890625 C168.55409002 255.95938807 164.49216086 241.85197393 164.6484375 227.98242188 C165.23422828 210.84804146 172.77921439 197.50292128 185 186 C194.02113186 178.58599415 204.49596395 174.49085187 216 173 C213.96889365 175.14155927 212.20822343 176.52287132 209.6875 178.1875 C201.8177517 183.75431143 196.02068544 193.62713661 194 203 C192.69673586 216.56714465 194.18029726 227.4847748 202.1875 238.8125 C209.52074342 247.55537336 219.45615242 253.25407419 230.83203125 254.37890625 C243.24922052 254.93770212 254.33456803 252.04521505 264 244 C269.56207734 238.78625478 272.92100951 232.92418138 276 226 C276.33 226 276.66 226 277 226 C277.78946861 242.05252835 274.26843731 255.16125442 263.67578125 267.765625 C253.12172508 278.83330086 240.36391278 285.33345281 225 286 C224.9175 287.0725 224.835 288.145 224.75 289.25 C223.90472157 293.47639213 222.91758675 294.08241325 220 297 C219.19234122 300.64721696 219.19234122 300.64721696 219 304 C219.7425 304.061875 220.485 304.12375 221.25 304.1875 C224.84889332 305.25080939 225.91859246 306.95222467 228 310 C229.72800263 313.45600526 229.35691083 317.21419587 229 321 C227.46241053 325.15149156 225.90159664 327.80535189 222 330 C221.01 330 220.02 330 219 330 C220.44920425 333.38147659 222.37261655 335.45737085 225 338 C226.45147903 340.90295805 226.37239025 342.77261779 226 346 C224.55129084 348.38928899 223.00695109 349.99304891 221 352 C220.34 352 219.68 352 219 352 C232.05964397 380.48875921 268.25037605 397.52895907 293.63916016 413.88208008 C309.45569422 424.08360897 325.19136246 434.3649546 340 446 C341.48306641 447.16402344 341.48306641 447.16402344 342.99609375 448.3515625 C369.82831073 469.89345585 397.23643524 498.32274406 405 533 C405.29390625 534.20140625 405.5878125 535.4028125 405.890625 536.640625 C409.58371522 552.8423713 408.77554249 568.9089975 405 585 C404.67 585 404.34 585 404 585 C403.89510254 583.91452881 403.89510254 583.91452881 403.78808594 582.80712891 C401.62934426 560.91082461 398.98350695 541.74515819 389 522 C388.47164551 520.95150879 388.47164551 520.95150879 387.93261719 519.88183594 C365.42756609 476.00626885 321.65440865 449.23795504 281.15625 423.9765625 C261.31592578 411.57791151 241.48226135 398.87948595 224.234375 382.984375 C221.30915243 380.38645006 218.24190208 378.1847601 215 376 C214.58492188 376.44988281 214.16984375 376.89976562 213.7421875 377.36328125 C207.39361244 383.9907686 200.29621059 389.47395501 193 395 C192.41331543 395.44746582 191.82663086 395.89493164 191.22216797 396.35595703 C173.08542709 410.13867065 153.51299533 421.97925154 134.18359375 433.99609375 C119.90957842 442.89566469 105.90257505 452.17393312 93 463 C92.4946875 463.41652832 91.989375 463.83305664 91.46875 464.26220703 C62.10734938 488.49055618 34.08205427 520.03210868 30.1484375 559.5625 C29.87975998 562.37406362 29.62650411 565.18685631 29.375 568 C29.24015086 569.45708388 29.10473897 570.9141158 28.96875 572.37109375 C28.63933876 575.91348646 28.31756374 579.45652322 28 583 C23.06805128 575.60207692 23.64087524 565.36026099 23.6875 556.75 C23.69313965 555.65244385 23.6987793 554.5548877 23.70458984 553.42407227 C23.91385368 539.37542437 26.37701436 523.4491988 34.07592773 511.30249023 C35.45905559 507.85618143 35.24844647 504.45110817 35.1875 500.796875 C35.17674438 499.55028107 35.17674438 499.55028107 35.16577148 498.27850342 C35.04288094 488.3773942 34.57764942 478.48701956 34.14248657 468.59585571 C33.74407182 459.24031962 33.42885103 449.88142433 33.11761475 440.52264404 C33.03985483 438.19367994 32.96017576 435.86477904 32.878479 433.53594971 C32.65149847 426.98070018 32.47387343 420.42767736 32.37084961 413.8692627 C32.33231868 411.85074181 32.27793877 409.83245376 32.20678711 407.81481934 C31.61120452 390.35195742 31.61120452 390.35195742 37.48046875 383.82421875 C38.96402453 382.52283607 40.46536299 381.24073522 42 380 C44.10818398 375.78363204 43.18585825 370.26181507 43.18530273 365.6237793 C43.18748791 363.57384443 43.20564534 361.52444891 43.22460938 359.47460938 C43.22654297 358.18490234 43.22847656 356.89519531 43.23046875 355.56640625 C43.23457764 354.37990479 43.23868652 353.19340332 43.24291992 351.97094727 C43.22660947 348.8144447 43.22660947 348.8144447 41 346 C39.10570434 345.24014868 39.10570434 345.24014868 36.90234375 344.8671875 C36.10119141 344.70089844 35.30003906 344.53460938 34.47460938 344.36328125 C33.21874023 344.12158203 33.21874023 344.12158203 31.9375 343.875 C30.27933589 343.54209655 28.62174675 343.20631189 26.96484375 342.8671875 C26.2287085 342.72394043 25.49257324 342.58069336 24.73413086 342.43310547 C23 342 23 342 22 341 C21.89868209 337.89489277 21.86032924 334.8125105 21.8671875 331.70703125 C21.86623077 330.76824631 21.86527405 329.82946136 21.86428833 328.86222839 C21.8636061 326.8690077 21.86546335 324.87578481 21.86962891 322.88256836 C21.87494684 319.84288467 21.86970085 316.80335076 21.86328125 313.76367188 C21.86394261 311.82812468 21.86522496 309.89257757 21.8671875 307.95703125 C21.86516327 307.05056351 21.86313904 306.14409576 21.86105347 305.2101593 C21.87443163 301.57204697 21.93070751 298.32338926 22.69580078 294.75268555 C23.26505437 291.89932046 23.26505437 291.89932046 21.60302734 289.23950195 C19.42612286 284.84027173 19.4569314 281.01751001 19.3515625 276.16796875 C19.32019196 275.17629196 19.28882141 274.18461517 19.25650024 273.16288757 C19.15568678 269.77550694 19.07793783 266.38797964 19 263 C18.92822232 260.43961133 18.85627607 257.87922738 18.78417969 255.31884766 C18.61723994 249.11344562 18.51322851 242.9087519 18.45171738 236.70143318 C18.41543046 233.12841212 18.36114336 229.55757922 18.26611328 225.9855957 C18.17257632 222.4509992 18.12455566 218.91835244 18.10716629 215.38258934 C18.08664219 213.43031238 18.02144933 211.47866288 17.9546814 209.52742004 C17.97309114 200.81222704 20.10460333 196.29954726 25.96725464 189.84368896 C29.81286233 184.46391423 29.06013635 178.29852568 28.75 171.9375 C28.72679687 169.98166992 28.72679687 169.98166992 28.703125 167.98632812 C28.92901899 161.83740252 28.92901899 161.83740252 26.76275635 156.36720276 C24.55403676 154.65410865 23.07904313 154.51297414 20.3125 154.3125 C19.10013672 154.21388672 19.10013672 154.21388672 17.86328125 154.11328125 C17.24839844 154.07589844 16.63351562 154.03851563 16 154 C16.01856049 153.43593948 16.03712097 152.87187897 16.0562439 152.29072571 C17.10804856 117.64287703 13.50017927 88.39852196 1 56 C-0.33679168 59.95978322 -1.66910156 63.92104178 -2.99780273 67.88354492 C-3.44750943 69.22279534 -3.89830381 70.56168115 -4.3503418 71.90014648 C-5.47216589 75.22300197 -6.57627645 78.55005601 -7.65112305 81.88842773 C-8.51678246 84.57428695 -9.44753643 87.22092194 -10.43676758 89.86352539 C-15.08332825 102.90204396 -14.56622998 115.87352817 -14.3125 129.5625 C-14.28736008 131.94203359 -14.26455708 134.32159307 -14.24414062 136.70117188 C-14.18965824 142.46802319 -14.10649279 148.23388657 -14 154 C-14.90492188 154.05607422 -14.90492188 154.05607422 -15.828125 154.11328125 C-19.34637056 154.40268532 -22.3026501 154.67231653 -25.51831055 156.18334961 C-28.85885427 160.27907969 -27.7843025 166.53052758 -27.8125 171.5625 C-27.86986328 172.80064453 -27.92722656 174.03878906 -27.98632812 175.31445312 C-28.05021006 182.41286397 -27.3648799 186.42568221 -22.51171875 191.77734375 C-21.01750113 193.19517681 -19.51574017 194.60519944 -18 196 C-16.42028555 199.1594289 -16.85851497 202.55085164 -16.8671875 206.01953125 C-16.86573227 206.84981339 -16.86427704 207.68009552 -16.86277771 208.53553772 C-16.86050552 211.29456909 -16.86687672 214.05348057 -16.875 216.8125 C-16.87688324 217.75474426 -16.87876648 218.69698853 -16.88070679 219.66778564 C-16.89726058 226.77872783 -16.94136316 233.88928749 -17 241 C-17.00860046 242.04939758 -17.01720093 243.09879517 -17.02606201 244.17999268 C-17.08119044 250.41787629 -17.15903655 256.65494179 -17.26446533 262.8921814 C-17.29639949 264.87520325 -17.3235667 266.8583078 -17.34588623 268.84146118 C-17.37898727 271.62133372 -17.4310443 274.40022072 -17.48828125 277.1796875 C-17.49468124 278.00179214 -17.50108124 278.82389679 -17.50767517 279.6709137 C-17.63204783 284.46927984 -18.49029708 286.85072913 -21 291 C-20.72075109 293.79765839 -20.72075109 293.79765839 -20 297 C-19.84535209 300.4030008 -19.88347141 303.80496824 -19.90234375 307.2109375 C-19.9037587 308.17907379 -19.90517365 309.14721008 -19.90663147 310.14468384 C-19.91220635 313.22148799 -19.92475423 316.29821803 -19.9375 319.375 C-19.94251825 321.46744686 -19.94708059 323.55989487 -19.95117188 325.65234375 C-19.96216755 330.7682575 -19.97941485 335.88411621 -20 341 C-25.44390358 342.57388343 -30.8920324 343.9060297 -36.42578125 345.12109375 C-39.31721631 345.81695301 -39.31721631 345.81695301 -41 349 C-41.5468527 353.11697019 -41.62678182 357.23417883 -41.70019531 361.38452148 C-41.74910089 363.40043801 -41.86225072 365.41446737 -41.9765625 367.42773438 C-42.1153994 375.21417076 -41.43127319 379.27204878 -36 385.015625 C-35.30481262 385.73439316 -35.30481262 385.73439316 -34.59558105 386.46768188 C-30.07990176 391.41680316 -29.91047863 395.56771767 -30.01928711 402.0625 C-30.09520945 403.47921963 -30.1721493 404.89588503 -30.25 406.3125 C-30.29547717 407.83711523 -30.33641178 409.36187132 -30.37329102 410.88671875 C-30.46705081 414.30737025 -30.59594129 417.72454067 -30.74853516 421.14306641 C-31.04053705 427.72251238 -31.24260753 434.30413197 -31.44921875 440.88671875 C-31.99795993 457.83099871 -32.60356614 474.77350563 -33.50390625 491.703125 C-34.26840092 506.23368738 -34.62471993 520.78293225 -35.0625 535.32629395 C-35.35027051 544.88510845 -35.65829164 554.44293394 -36 564 C-36.03061523 564.9269165 -36.06123047 565.85383301 -36.09277344 566.80883789 C-36.17168584 569.07668276 -36.26852714 571.34268452 -36.375 573.609375 C-36.44847656 575.33365723 -36.44847656 575.33365723 -36.5234375 577.09277344 C-37.09138593 580.55749164 -37.74145633 582.292672 -40 585 C-42.5760875 586.55981749 -45.23060922 587.82251556 -48 589 C-48.11748157 557.76615229 -48.04546527 526.54290343 -47.5625 495.3125 C-47.55154549 494.60196346 -47.54059097 493.89142693 -47.5293045 493.15935898 C-47.26936957 476.42022044 -46.95184321 459.68329932 -46.50216675 442.94805908 C-46.43907643 440.5596782 -46.37993131 438.17123821 -46.32250977 435.78271484 C-46.29546211 434.66198578 -46.29546211 434.66198578 -46.26786804 433.51861572 C-46.23306337 432.07310525 -46.1984797 430.62758944 -46.16413879 429.18206787 C-46.06285338 425.0635893 -45.92617755 420.94803842 -45.76441956 416.83151245 C-45.64965315 413.70089596 -45.57876204 410.56919813 -45.5 407.4375 C-45.44513428 406.35984375 -45.39026855 405.2821875 -45.33374023 404.171875 C-45.16081033 398.76860319 -45.16081033 398.76860319 -47.453125 394.05908203 C-48.67920067 392.91127348 -49.92737398 391.78665484 -51.19555664 390.68554688 C-56.13362902 386.07284876 -57.14901751 380.5594289 -57.49697876 373.98422241 C-57.59191747 370.92369048 -57.60153059 367.86863752 -57.57641602 364.80688477 C-57.5625041 362.43819738 -57.59675222 360.07343618 -57.63476562 357.70507812 C-57.70873203 342.98537607 -57.70873203 342.98537607 -52 337 C-48.29986358 333.29986358 -44.02353717 331.31830399 -39 330 C-37.68 330 -36.36 330 -35 330 C-35.04600342 328.72358643 -35.09200684 327.44717285 -35.1394043 326.13208008 C-35.3061656 321.38951753 -35.45220524 316.6465027 -35.59204102 311.90307617 C-35.65540946 309.85146185 -35.72437201 307.80001228 -35.79907227 305.7487793 C-35.90556845 302.79761993 -35.99183006 299.84644996 -36.07421875 296.89453125 C-36.11157639 295.97976517 -36.14893402 295.06499908 -36.18742371 294.12251282 C-36.34188889 287.55772326 -36.34188889 287.55772326 -34.52734375 284.59765625 C-31.96900835 280.24652316 -32.51758301 275.4958431 -32.48828125 270.54296875 C-32.47033005 269.40837723 -32.45237885 268.27378571 -32.43388367 267.10481262 C-32.37979878 263.46574764 -32.34603866 259.82680626 -32.3125 256.1875 C-32.27929085 253.81183049 -32.24479792 251.43617855 -32.20898438 249.06054688 C-32.14017589 244.35063267 -32.09798398 239.64148826 -32.07275391 234.93115234 C-32.04317194 230.33659806 -31.92512695 225.75715074 -31.73583984 221.16650391 C-31.70346725 220.08242752 -31.67109467 218.99835114 -31.63774109 217.88142395 C-31.576612 215.85406619 -31.48889805 213.82725218 -31.36872864 211.80253601 C-31.24686908 206.48562326 -31.78646577 203.65039844 -35.37817383 199.61352539 C-36.3046447 198.72438194 -36.3046447 198.72438194 -37.24983215 197.817276 C-44.22463429 190.57503318 -43.61058212 180.2468343 -43.5 170.875 C-43.51546875 169.55628906 -43.5309375 168.23757812 -43.546875 166.87890625 C-43.51509307 158.9731507 -43.31158787 152.38300851 -37.48193359 146.45678711 C-35.44956766 144.69336537 -33.40953187 143.20476593 -31 142 C-31.03778564 141.01346436 -31.07557129 140.02692871 -31.11450195 139.01049805 C-31.93935534 113.3643667 -28.07125633 91.79473573 -19.85020447 67.5818634 C-16.34347772 57.21278663 -13.32045385 46.708336 -10.29428101 36.19091797 C-9.39653239 33.07474112 -8.49127789 29.96085227 -7.58325195 26.84765625 C-7.0215228 24.91930705 -6.45991213 22.99092333 -5.8984375 21.0625 C-5.52417381 19.77762695 -5.52417381 19.77762695 -5.14234924 18.46679688 C-3.36320584 12.32855122 -1.66637634 6.16976641 0 0 Z " fill="#FA5F23" transform="translate(253,52)"/>
<path d="M0 0 C4.95 0 9.9 0 15 0 C19.76777352 11.20994369 24.12540687 22.5697723 28.5 33.9375 C29.25375951 35.8926347 30.00766482 37.84771321 30.76171875 39.80273438 C32.20132475 43.53548909 33.63856146 47.26914298 35.07421875 51.00341797 C36.25538072 54.07372668 37.44379811 57.14090735 38.64453125 60.20361328 C39.10214844 61.37520996 39.55976563 62.54680664 40.03125 63.75390625 C40.41861328 64.73818604 40.80597656 65.72246582 41.20507812 66.73657227 C42 69 42 69 42 71 C37.05 71 32.1 71 27 71 C22 58.25 22 58.25 22 56 C12.76 56.33 3.52 56.66 -6 57 C-7.65 61.62 -9.3 66.24 -11 71 C-15.95 71 -20.9 71 -26 71 C-25.32902632 67.64513161 -24.72486529 64.97210699 -23.56054688 61.85009766 C-23.26905762 61.06310989 -22.97756836 60.27612213 -22.67724609 59.46528625 C-22.36094238 58.62338242 -22.04463867 57.78147858 -21.71875 56.9140625 C-21.38891113 56.02764572 -21.05907227 55.14122894 -20.71923828 54.22795105 C-19.65013689 51.35879781 -18.57530524 48.49183331 -17.5 45.625 C-16.76876292 43.66760566 -16.03764321 41.71016747 -15.30664062 39.75268555 C-10.33132903 26.45138905 -5.26934881 13.1880091 0 0 Z " fill="#FA6024" transform="translate(201,661)"/>
<path d="M0 0 C3.47386209 1.34078888 5.91428643 2.94285762 9 5 C9.9075 4.175 10.815 3.35 11.75 2.5 C16.79349994 -1.09810666 22.04479231 -0.86577068 28 0 C33.37880673 1.71929715 36.30289928 5.12447177 39 10 C40.3158809 13.9476427 40.12300273 17.71089356 40.09765625 21.82421875 C40.0962413 22.68561966 40.09482635 23.54702057 40.09336853 24.43452454 C40.0877714 27.18555169 40.07521946 29.93649744 40.0625 32.6875 C40.05748463 34.5527332 40.05292179 36.41796767 40.04882812 38.28320312 C40.03780292 42.85550011 40.02054027 47.42773625 40 52 C35.71 52 31.42 52 27 52 C26.9906543 50.96069336 26.98130859 49.92138672 26.97167969 48.85058594 C26.93175877 44.98866162 26.86599522 41.1275322 26.79248047 37.26611328 C26.76428282 35.59596989 26.74306221 33.92569335 26.72900391 32.25537109 C26.70755663 29.85184628 26.66090155 27.44992017 26.609375 25.046875 C26.60814636 24.30193787 26.60691772 23.55700073 26.60565186 22.78948975 C26.50793277 19.31841598 26.25356007 17.33919513 24.14941406 14.52441406 C21.22811963 12.45256462 19.50957588 12.48818685 16 13 C13.71230344 13.92042982 13.71230344 13.92042982 12 16 C11.57407146 18.84415877 11.39515963 21.31878755 11.390625 24.16796875 C11.37408875 24.96278152 11.35755249 25.7575943 11.34051514 26.57649231 C11.2919538 29.11357281 11.27064721 31.65005367 11.25 34.1875 C11.22184696 35.90823343 11.19192046 37.62893882 11.16015625 39.34960938 C11.08619324 43.56635688 11.03666882 47.78276993 11 52 C6.38 52 1.76 52 -3 52 C-3.01458252 50.92516357 -3.02916504 49.85032715 -3.04418945 48.74291992 C-3.1021489 44.75625283 -3.17938129 40.77015199 -3.26245117 36.78393555 C-3.29571172 35.05844307 -3.32374019 33.33284151 -3.34643555 31.60717773 C-3.37996153 29.12696834 -3.43227406 26.6477597 -3.48828125 24.16796875 C-3.49467117 23.39599655 -3.5010611 22.62402435 -3.50764465 21.82865906 C-3.60216131 17.68207898 -3.60216131 17.68207898 -5.35229492 14.0168457 C-8.02613908 12.36674037 -9.93258403 12.57056176 -13 13 C-15.79336709 14.43818449 -15.79336709 14.43818449 -18 17 C-18.51654351 19.87244855 -18.72219818 22.17389691 -18.70703125 25.046875 C-18.72215256 25.81807678 -18.73727386 26.58927856 -18.75285339 27.3838501 C-18.79573495 29.83953069 -18.80456806 32.2939823 -18.8125 34.75 C-18.83564421 36.41800143 -18.8610094 38.08597363 -18.88867188 39.75390625 C-18.95152782 43.83604614 -18.98385956 47.9174189 -19 52 C-23.29 52 -27.58 52 -32 52 C-32 35.5 -32 19 -32 2 C-27.71 2 -23.42 2 -19 2 C-18.67 2.99 -18.34 3.98 -18 5 C-17.2575 4.175 -16.515 3.35 -15.75 2.5 C-11.1520797 -1.35349511 -5.66978125 -0.7310829 0 0 Z " fill="#FB5F22" transform="translate(542,680)"/>
<path d="M0 0 C3.87568092 3.00277981 6.18322938 6.69031314 7.734375 11.34375 C7.8196763 14.22069671 7.85023145 17.07275182 7.83203125 19.94921875 C7.8306163 20.78842361 7.82920135 21.62762848 7.82774353 22.49226379 C7.82214715 25.17196216 7.80959535 27.8515769 7.796875 30.53125 C7.79185953 32.34830608 7.78729671 34.16536348 7.78320312 35.98242188 C7.77217891 40.43623013 7.75491678 44.88997589 7.734375 49.34375 C3.444375 49.34375 -0.845625 49.34375 -5.265625 49.34375 C-5.595625 48.02375 -5.925625 46.70375 -6.265625 45.34375 C-7.02875 45.983125 -7.791875 46.6225 -8.578125 47.28125 C-13.65923163 51.18070393 -19.09294025 50.96691326 -25.265625 50.34375 C-29.64168378 48.90172084 -33.23210049 46.84464893 -36.265625 43.34375 C-38.14274584 37.71238749 -38.5017554 30.69978628 -36.4296875 25.07421875 C-33.5012272 20.56360372 -29.44187159 17.72243131 -24.265625 16.34375 C-17.86883561 15.73269031 -12.17121433 15.60460838 -6.265625 18.34375 C-7.19538851 14.15730096 -7.19538851 14.15730096 -9.9921875 11.16796875 C-17.95901794 8.2796505 -26.60682987 10.64064584 -34.265625 13.34375 C-34.265625 9.38375 -34.265625 5.42375 -34.265625 1.34375 C-24.18496624 -3.77658461 -10.3800616 -5.63259156 0 0 Z " fill="#FA6024" transform="translate(337.265625,682.65625)"/>
<path d="M0 0 C4.9029168 2.20631256 7.99092001 5.58935317 10.40625 10.3515625 C12.93097974 17.44485082 12.40625 22.29102754 12.40625 30.3515625 C1.84625 30.3515625 -8.71375 30.3515625 -19.59375 30.3515625 C-16.26041667 36.18489583 -16.26041667 36.18489583 -12.59375 38.3515625 C-4.80110532 39.34440316 0.71434413 38.31713635 7.40625 34.3515625 C8.06625 34.3515625 8.72625 34.3515625 9.40625 34.3515625 C9.40625 38.3115625 9.40625 42.2715625 9.40625 46.3515625 C0.41220724 50.45178787 -7.92753225 53.46550294 -17.9453125 50.703125 C-24.81020374 47.60199652 -29.1595852 42.19556399 -31.98510742 35.29858398 C-33.04865536 31.89633979 -33.12579721 28.58228252 -33.09375 25.0390625 C-33.08730469 24.29358154 -33.08085938 23.54810059 -33.07421875 22.7800293 C-32.86548747 16.45560889 -31.65413191 11.37131866 -27.59375 6.3515625 C-19.61453413 -1.06315817 -10.61650659 -2.65412665 0 0 Z " fill="#FA5F23" transform="translate(624.59375,680.6484375)"/>
<path d="M0 0 C17.49 0 34.98 0 53 0 C53 4.29 53 8.58 53 13 C46.73 13 40.46 13 34 13 C34 32.14 34 51.28 34 71 C29.05 71 24.1 71 19 71 C19 51.86 19 32.72 19 13 C12.73 13 6.46 13 0 13 C0 8.71 0 4.42 0 0 Z " fill="#F96429" transform="translate(426,661)"/>
<path d="M0 0 C4.47870656 2.15937638 7.18198188 4.92952939 10 9 C10.90208123 11.7062437 11.12227599 13.23850986 11.11352539 16.01245117 C11.11344986 16.81305466 11.11337433 17.61365814 11.11329651 18.43852234 C11.10813522 19.29798965 11.10297394 20.15745697 11.09765625 21.04296875 C11.0962413 21.9265657 11.09482635 22.81016266 11.09336853 23.72053528 C11.08777069 26.54289128 11.07521861 29.36516797 11.0625 32.1875 C11.05748472 34.10091031 11.05292186 36.01432187 11.04882812 37.92773438 C11.03780197 42.61852014 11.02053883 47.30924663 11 52 C6.38 52 1.76 52 -3 52 C-3.33 39.46 -3.66 26.92 -4 14 C-12.23127103 12.35949213 -12.23127103 12.35949213 -16.51220703 14.43457031 C-19.79400164 17.8187801 -19.85947704 20.55874398 -19.8046875 25.046875 C-19.82524704 26.20367767 -19.82524704 26.20367767 -19.84622192 27.3838501 C-19.8835242 29.83982671 -19.87980763 32.29378032 -19.875 34.75 C-19.89312692 36.41800036 -19.91392961 38.08597393 -19.9375 39.75390625 C-19.98935196 43.8362765 -20.00443082 47.91731852 -20 52 C-24.29 52 -28.58 52 -33 52 C-33 35.5 -33 19 -33 2 C-28.71 2 -24.42 2 -20 2 C-19.67 2.99 -19.34 3.98 -19 5 C-18.21625 4.360625 -17.4325 3.72125 -16.625 3.0625 C-11.46737261 -0.98992152 -6.38605629 -0.60182729 0 0 Z " fill="#FA5E21" transform="translate(389,680)"/>
<path d="M0 0 C13.86 0 27.72 0 42 0 C42 12 42 12 39.47265625 15.84765625 C38.36430232 16.94858264 37.22604464 18.02007437 36.0625 19.0625 C34.86690435 20.23012372 33.6742176 21.40073304 32.484375 22.57421875 C31.89333984 23.14317871 31.30230469 23.71213867 30.69335938 24.29833984 C27.37740173 27.63055218 24.58755255 31.37706592 21.70703125 35.0859375 C21.14371094 35.71757813 20.58039063 36.34921875 20 37 C19.34 37 18.68 37 18 37 C18 37.66 18 38.32 18 39 C26.25 39 34.5 39 43 39 C43 42.96 43 46.92 43 51 C28.48 51 13.96 51 -1 51 C-1 39.53803313 -1 39.53803313 4.3125 34.1875 C5.40967588 32.99945625 6.50600936 31.81063407 7.6015625 30.62109375 C8.16391602 30.0266748 8.72626953 29.43225586 9.30566406 28.81982422 C12.03789498 25.88523499 14.60876826 22.81917862 17.1875 19.75 C17.65647705 19.20110107 18.1254541 18.65220215 18.60864258 18.08666992 C21.06102612 15.21952471 21.06102612 15.21952471 23 12 C15.41 12 7.82 12 0 12 C0 8.04 0 4.08 0 0 Z " fill="#FA5F23" transform="translate(249,681)"/>
<path d="M0 0 C1 1 1 1 1.09765625 3.50390625 C1.08605469 4.51324219 1.07445312 5.52257812 1.0625 6.5625 C1.05347656 7.57441406 1.04445313 8.58632813 1.03515625 9.62890625 C1.02355469 10.41136719 1.01195312 11.19382812 1 12 C0.31035156 11.7834375 -0.37929688 11.566875 -1.08984375 11.34375 C-11.16996655 8.25348377 -11.16996655 8.25348377 -21.25390625 10.01953125 C-21.83011719 10.34308594 -22.40632812 10.66664063 -23 11 C-23 11.99 -23 12.98 -23 14 C-21.85402344 14.36351562 -20.70804688 14.72703125 -19.52734375 15.1015625 C-4.2303717 20.11583184 -4.2303717 20.11583184 1 26 C2.76868133 31.30604399 2.8577347 36.14157481 0.5 41.25 C-4.09272924 46.30200216 -9.36644239 49.57728948 -16.2265625 50.203125 C-23.73741191 50.34991685 -30.66669901 49.22220066 -37 45 C-37.29296875 42.1796875 -37.29296875 42.1796875 -37.1875 38.875 C-37.16042969 37.77929688 -37.13335938 36.68359375 -37.10546875 35.5546875 C-37.07066406 34.71164062 -37.03585937 33.86859375 -37 33 C-32 35 -32 35 -29.60546875 36.11328125 C-26.39607212 37.20553468 -23.69599027 37.2299383 -20.3125 37.1875 C-19.17425781 37.18105469 -18.03601563 37.17460938 -16.86328125 37.16796875 C-14.05552819 37.19195839 -14.05552819 37.19195839 -12 36 C-12 34.35 -12 32.7 -12 31 C-13.0725 30.608125 -14.145 30.21625 -15.25 29.8125 C-15.971875 29.53664063 -16.69375 29.26078125 -17.4375 28.9765625 C-19.3053266 28.26473834 -21.18160764 27.57498297 -23.0625 26.8984375 C-27.67447985 25.14633731 -31.23175827 23.76824173 -34.75 20.25 C-36.38676825 15.99440254 -36.79136142 12.49783994 -36 8 C-33.61560029 3.1394929 -30.68758582 0.63676702 -26 -2 C-17.68014314 -4.77942121 -7.7588789 -3.80337201 0 0 Z " fill="#FA5F23" transform="translate(680,683)"/>
<path d="M0 0 C4.62 0 9.24 0 14 0 C14 16.83 14 33.66 14 51 C9.38 51 4.76 51 0 51 C0 34.17 0 17.34 0 0 Z " fill="#F96228" transform="translate(484,681)"/>
<path d="M0 0 C2.74773758 1.37386879 2.87247008 2.77340261 3.9453125 5.62109375 C4.29980469 6.55630859 4.65429688 7.49152344 5.01953125 8.45507812 C5.38433594 9.43927734 5.74914062 10.42347656 6.125 11.4375 C6.68380859 12.90799805 6.68380859 12.90799805 7.25390625 14.40820312 C10 21.71603136 10 21.71603136 10 24 C4.06 24 -1.88 24 -8 24 C-6.87465292 17.24791749 -6.87465292 17.24791749 -5.625 13.984375 C-5.23054687 12.94410156 -5.23054687 12.94410156 -4.828125 11.8828125 C-4.41820312 10.82707031 -4.41820312 10.82707031 -4 9.75 C-3.72671875 9.03070312 -3.4534375 8.31140625 -3.171875 7.5703125 C-1.1860119 2.37202381 -1.1860119 2.37202381 0 0 Z " fill="#F2F0EE" transform="translate(208,680)"/>
<path d="M0 0 C1.9375 1.125 1.9375 1.125 3 3 C3.49125459 6.85985753 3.56021138 9.08965651 1.5 12.4375 C-1.53037933 14.33148708 -3.55856953 14.64063361 -7.08984375 14.44921875 C-9 14 -9 14 -11.5625 11.875 C-13 9 -13 9 -13.0625 5.9375 C-10.64059697 -0.75834954 -6.55414775 -1.8205966 0 0 Z " fill="#F95F23" transform="translate(496,659)"/>
<path d="M0 0 C2.0625 1.0625 2.0625 1.0625 3.0625 2.0625 C3.4375 4.9375 3.4375 4.9375 3.0625 8.0625 C-0.06490135 11.29774277 -3.33935417 11.27938848 -7.625 11.375 C-12.64538043 11.35461957 -12.64538043 11.35461957 -14.9375 9.0625 C-15.60682271 2.92704183 -15.60682271 2.92704183 -13.4375 0.125 C-8.87660372 -1.81338092 -4.59972371 -1.46799693 0 0 Z " fill="#F1F1F0" transform="translate(327.9375,710.9375)"/>
<path d="M0 0 C2.875 1.125 2.875 1.125 5 3 C5.33 4.98 5.66 6.96 6 9 C-0.27 9 -6.54 9 -13 9 C-12 4 -12 4 -9.875 1.6875 C-6.2426172 -0.44455077 -4.15582055 -0.51947757 0 0 Z " fill="#F1F1EF" transform="translate(618,691)"/>
<path d="M0 0 C0.66 0.33 1.32 0.66 2 1 C2 13.87 2 26.74 2 40 C-2.29 40 -6.58 40 -11 40 C-11 28.45 -11 16.9 -11 5 C-10.67 5 -10.34 5 -10 5 C-9.67 15.89 -9.34 26.78 -9 38 C-6.03 38 -3.06 38 0 38 C0 25.46 0 12.92 0 0 Z " fill="#F65417" transform="translate(580,692)"/>
<path d="M0 0 C2 2 2 2 2.22705078 5.25634766 C2.22673382 6.64229295 2.21541759 8.02826301 2.1953125 9.4140625 C2.1924826 10.14370209 2.18965271 10.87334167 2.18673706 11.62509155 C2.17553002 13.95856028 2.1504251 16.29164703 2.125 18.625 C2.11497085 20.20572363 2.10584489 21.78645327 2.09765625 23.3671875 C2.07558905 27.24493914 2.04105615 31.12240478 2 35 C5.3 35 8.6 35 12 35 C12 23.78 12 12.56 12 1 C12.33 1 12.66 1 13 1 C13 12.88 13 24.76 13 37 C8.71 37 4.42 37 0 37 C0 24.79 0 12.58 0 0 Z " fill="#F85313" transform="translate(539,695)"/>
<path d="M0 0 C0.66 0.33 1.32 0.66 2 1 C2 4.96 2 8.92 2 13 C-8.56 13 -19.12 13 -30 13 C-30.33 13.99 -30.66 14.98 -31 16 C-31.5625 14.0625 -31.5625 14.0625 -32 12 C-31 11 -31 11 -28.04077148 10.88647461 C-26.74727783 10.89171143 -25.45378418 10.89694824 -24.12109375 10.90234375 C-23.09110008 10.90446617 -23.09110008 10.90446617 -22.04029846 10.90663147 C-19.83932199 10.91224521 -17.63844591 10.92479993 -15.4375 10.9375 C-13.94856917 10.94251324 -12.45963676 10.94707645 -10.97070312 10.95117188 C-7.31376925 10.96221907 -3.65689442 10.97949287 0 11 C0 7.37 0 3.74 0 0 Z " fill="#F46730" transform="translate(635,698)"/>
<path d="M0 0 C3 1.1875 3 1.1875 5 3.1875 C5 4.8375 5 6.4875 5 8.1875 C0.38 7.5275 -4.24 6.8675 -9 6.1875 C-8.67 5.1975 -8.34 4.2075 -8 3.1875 C-7.34 3.1875 -6.68 3.1875 -6 3.1875 C-5.67 2.1975 -5.34 1.2075 -5 0.1875 C-3 -0.8125 -3 -0.8125 0 0 Z " fill="#F1EDE9" transform="translate(326,692.8125)"/>
<path d="M0 0 C0.99 0.33 1.98 0.66 3 1 C1.44877329 2.4909849 -0.11647668 3.96738912 -1.6875 5.4375 C-2.55761719 6.26121094 -3.42773438 7.08492188 -4.32421875 7.93359375 C-7.03946719 10.03047904 -8.63412623 10.66644494 -12 11 C-9.20482229 8.12011993 -6.34554952 5.32435285 -3.375 2.625 C-2.80523437 2.10164063 -2.23546875 1.57828125 -1.6484375 1.0390625 C-1.10445313 0.69617188 -0.56046875 0.35328125 0 0 Z " fill="#F6591E" transform="translate(445,428)"/>
<path d="M0 0 C0.33 0 0.66 0 1 0 C3.15408416 7.88644034 2.937402 14.91807467 2 23 C1.67 23 1.34 23 1 23 C0.24833087 15.30881404 -0.13690844 7.72772107 0 0 Z " fill="#F54E13" transform="translate(656,614)"/>
<path d="M0 0 C-4.455 2.97 -4.455 2.97 -9 6 C-9.66 4.35 -10.32 2.7 -11 1 C-3.375 -1.125 -3.375 -1.125 0 0 Z " fill="#F26C39" transform="translate(469,226)"/>
<path d="M0 0 C0.33 0 0.66 0 1 0 C1 3.63 1 7.26 1 11 C0.67 10.01 0.34 9.02 0 8 C-0.99 8.33 -1.98 8.66 -3 9 C-2.01 6.03 -1.02 3.06 0 0 Z " fill="#F45219" transform="translate(529,278)"/>
<path d="M0 0 C0.66 0.33 1.32 0.66 2 1 C2.6328125 3.06640625 2.6328125 3.06640625 3.125 5.5625 C3.29257812 6.38878906 3.46015625 7.21507813 3.6328125 8.06640625 C3.75398438 8.70449219 3.87515625 9.34257813 4 10 C3.34 10 2.68 10 2 10 C-1.125 3.75 -1.125 3.75 0 0 Z " fill="#F1E8DF" transform="translate(253,107)"/>
<path d="M0 0 C0.66 0 1.32 0 2 0 C2.66 2.31 3.32 4.62 4 7 C4.66 7 5.32 7 6 7 C6 7.66 6 8.32 6 9 C2.83884224 7.63016497 2.0072908 7.0109362 0 4 C0 2.68 0 1.36 0 0 Z " fill="#F36933" transform="translate(483,664)"/>
<path d="M0 0 C0.66 0.66 1.32 1.32 2 2 C-1.465 4.97 -1.465 4.97 -5 8 C-5 5 -5 5 -2.5 2.3125 C-1.675 1.549375 -0.85 0.78625 0 0 Z " fill="#F2EEE9" transform="translate(336,522)"/>
<path d="M0 0 C1.32 0 2.64 0 4 0 C4.33 2.31 4.66 4.62 5 7 C4.01 6.67 3.02 6.34 2 6 C0.8125 2.9375 0.8125 2.9375 0 0 Z " fill="#F6682F" transform="translate(525,286)"/>
<path d="M0 0 C-1.36983503 3.16115776 -1.9890638 3.9927092 -5 6 C-5.33 4.68 -5.66 3.36 -6 2 C-2.25 0 -2.25 0 0 0 Z " fill="#F1EEE9" transform="translate(478,380)"/>
<path d="M0 0 C0.99 0.33 1.98 0.66 3 1 C-2.75 6 -2.75 6 -5 6 C-3.63016497 2.83884224 -3.0109362 2.0072908 0 0 Z " fill="#F6561A" transform="translate(463,356)"/>
</svg>
